<?xml version="1.0" encoding="UTF-8" standalone="no"?>
<!DOCTYPE svg PUBLIC "-//W3C//DTD SVG 1.1//EN" "http://www.w3.org/Graphics/SVG/1.1/DTD/svg11.dtd">
<svg width="100%" height="100%" viewBox="0 0 651 804" version="1.1" xmlns="http://www.w3.org/2000/svg" xmlns:xlink="http://www.w3.org/1999/xlink" xml:space="preserve" xmlns:serif="http://www.serif.com/" style="fill-rule:evenodd;clip-rule:evenodd;stroke-linejoin:round;stroke-miterlimit:2;">
    <g transform="matrix(0.397965,0,0,0.397965,-418.537,492.428)">
        <g transform="matrix(600,0,0,600,1040.82,365.76)">
            <path d="M0.558,-0.197C0.558,-0.154 0.547,-0.118 0.526,-0.087C0.504,-0.056 0.474,-0.032 0.435,-0.016C0.396,0.001 0.352,0.009 0.302,0.009C0.288,0.009 0.271,0.008 0.25,0.006C0.23,0.004 0.203,-0.001 0.169,-0.009C0.135,-0.017 0.1,-0.029 0.064,-0.045L0.064,-0.211C0.098,-0.19 0.132,-0.172 0.165,-0.158C0.198,-0.144 0.233,-0.137 0.271,-0.137C0.306,-0.137 0.328,-0.143 0.339,-0.155C0.349,-0.166 0.354,-0.177 0.354,-0.187C0.354,-0.205 0.345,-0.221 0.328,-0.233C0.31,-0.246 0.285,-0.259 0.251,-0.272C0.214,-0.288 0.181,-0.305 0.153,-0.323C0.125,-0.341 0.102,-0.364 0.085,-0.392C0.067,-0.42 0.058,-0.452 0.058,-0.49C0.058,-0.527 0.067,-0.56 0.085,-0.589C0.103,-0.619 0.13,-0.642 0.167,-0.66C0.204,-0.677 0.249,-0.686 0.302,-0.686C0.34,-0.686 0.374,-0.682 0.406,-0.675C0.439,-0.668 0.465,-0.66 0.486,-0.65C0.507,-0.641 0.521,-0.634 0.529,-0.629L0.529,-0.47C0.501,-0.49 0.47,-0.508 0.436,-0.523C0.402,-0.539 0.366,-0.547 0.327,-0.547C0.302,-0.547 0.283,-0.542 0.272,-0.532C0.261,-0.522 0.255,-0.51 0.255,-0.496C0.255,-0.483 0.261,-0.471 0.272,-0.461C0.283,-0.452 0.304,-0.44 0.333,-0.426C0.385,-0.401 0.427,-0.379 0.458,-0.36C0.489,-0.34 0.514,-0.318 0.531,-0.292C0.549,-0.267 0.558,-0.235 0.558,-0.197Z" style="fill:rgb(154,194,231);fill-rule:nonzero;"/>
        </g>
        <g transform="matrix(600,0,0,600,1365.91,365.76)">
            <path d="M0.797,-0L0.548,-0L0.289,-0.317L0.289,-0L0.085,-0L0.085,-0.677L0.289,-0.677L0.289,-0.374L0.534,-0.677L0.756,-0.677L0.504,-0.36L0.797,-0Z" style="fill:rgb(154,194,231);fill-rule:nonzero;"/>
        </g>
        <g transform="matrix(600,0,0,600,1804.38,365.76)">
            <rect x="0.086" y="-0.677" width="0.204" height="0.677" style="fill:rgb(154,194,231);fill-rule:nonzero;"/>
        </g>
        <g transform="matrix(600,0,0,600,1987.97,365.76)">
            <path d="M0.599,-0L0.085,-0L0.085,-0.677L0.289,-0.677L0.289,-0.162L0.599,-0.162L0.599,-0Z" style="fill:rgb(154,194,231);fill-rule:nonzero;"/>
        </g>
        <g transform="matrix(600,0,0,600,2325.66,365.76)">
            <path d="M0.599,-0L0.085,-0L0.085,-0.677L0.289,-0.677L0.289,-0.162L0.599,-0.162L0.599,-0Z" style="fill:rgb(154,194,231);fill-rule:nonzero;"/>
        </g>
    </g>
    <g transform="matrix(0.322332,0,0,0.322332,-341.05,683.616)">
        <g transform="matrix(600,0,0,600,1040.82,365.76)">
            <path d="M0.078,-0L0.078,-0.682L0.249,-0.682C0.318,-0.682 0.373,-0.665 0.413,-0.631C0.454,-0.597 0.474,-0.55 0.474,-0.492C0.474,-0.452 0.464,-0.418 0.444,-0.389C0.424,-0.36 0.396,-0.339 0.359,-0.324C0.381,-0.31 0.402,-0.29 0.423,-0.266C0.444,-0.241 0.473,-0.198 0.511,-0.136C0.535,-0.097 0.554,-0.068 0.568,-0.049L0.604,-0L0.488,-0L0.458,-0.045L0.433,-0.08L0.403,-0.13L0.37,-0.183C0.35,-0.211 0.331,-0.233 0.315,-0.25C0.298,-0.267 0.283,-0.279 0.269,-0.286C0.256,-0.293 0.233,-0.297 0.201,-0.297L0.176,-0.297L0.176,-0L0.078,-0ZM0.205,-0.599L0.176,-0.599L0.176,-0.384L0.213,-0.384C0.262,-0.384 0.296,-0.388 0.315,-0.396C0.333,-0.405 0.347,-0.418 0.358,-0.435C0.368,-0.452 0.373,-0.471 0.373,-0.493C0.373,-0.515 0.367,-0.534 0.356,-0.552C0.345,-0.569 0.329,-0.581 0.308,-0.588C0.287,-0.596 0.253,-0.599 0.205,-0.599Z" style="fill:rgb(243,114,32);fill-rule:nonzero;"/>
        </g>
        <g transform="matrix(600,0,0,600,1373.23,365.76)">
            <path d="M0.075,-0.682L0.462,-0.682L0.462,-0.595L0.173,-0.595L0.173,-0.387L0.452,-0.387L0.452,-0.3L0.173,-0.3L0.173,-0.088L0.471,-0.088L0.471,-0.001L0.075,-0.001L0.075,-0.682Z" style="fill:rgb(243,114,32);fill-rule:nonzero;"/>
        </g>
        <g transform="matrix(600,0,0,600,1643.23,365.76)">
            <path d="M0.244,-0.286L0.17,-0.331C0.123,-0.359 0.09,-0.387 0.071,-0.415C0.051,-0.442 0.041,-0.474 0.041,-0.51C0.041,-0.563 0.06,-0.607 0.097,-0.641C0.134,-0.674 0.183,-0.691 0.242,-0.691C0.299,-0.691 0.351,-0.675 0.399,-0.643L0.399,-0.532C0.35,-0.579 0.297,-0.603 0.24,-0.603C0.208,-0.603 0.182,-0.596 0.162,-0.581C0.141,-0.566 0.131,-0.547 0.131,-0.524C0.131,-0.503 0.138,-0.484 0.153,-0.466C0.168,-0.448 0.193,-0.43 0.226,-0.41L0.301,-0.366C0.384,-0.317 0.426,-0.254 0.426,-0.177C0.426,-0.122 0.407,-0.078 0.371,-0.043C0.334,-0.009 0.287,0.008 0.228,0.008C0.161,0.008 0.099,-0.013 0.044,-0.054L0.044,-0.178C0.097,-0.111 0.158,-0.078 0.227,-0.078C0.258,-0.078 0.283,-0.087 0.303,-0.104C0.324,-0.121 0.334,-0.142 0.334,-0.168C0.334,-0.21 0.304,-0.249 0.244,-0.286Z" style="fill:rgb(243,114,32);fill-rule:nonzero;"/>
        </g>
        <g transform="matrix(600,0,0,600,1888.03,365.76)">
            <path d="M0.55,-0.682L0.648,-0.682L0.648,-0.295C0.648,-0.243 0.644,-0.203 0.636,-0.176C0.629,-0.15 0.619,-0.127 0.608,-0.11C0.597,-0.092 0.583,-0.076 0.567,-0.062C0.513,-0.015 0.442,0.008 0.355,0.008C0.266,0.008 0.195,-0.015 0.141,-0.062C0.125,-0.076 0.111,-0.092 0.1,-0.11C0.089,-0.127 0.079,-0.149 0.072,-0.175C0.065,-0.201 0.061,-0.241 0.061,-0.296L0.061,-0.682L0.159,-0.682L0.159,-0.295C0.159,-0.231 0.167,-0.186 0.181,-0.161C0.196,-0.136 0.218,-0.116 0.248,-0.101C0.278,-0.086 0.313,-0.078 0.354,-0.078C0.412,-0.078 0.459,-0.093 0.496,-0.124C0.515,-0.14 0.529,-0.159 0.537,-0.181C0.546,-0.203 0.55,-0.241 0.55,-0.295L0.55,-0.682Z" style="fill:rgb(243,114,32);fill-rule:nonzero;"/>
        </g>
        <g transform="matrix(600,0,0,600,2282.84,365.76)">
            <path d="M0.075,-0.682L0.173,-0.682L0.173,-0.089L0.48,-0.089L0.48,-0L0.075,-0L0.075,-0.682Z" style="fill:rgb(243,114,32);fill-rule:nonzero;"/>
        </g>
        <g transform="matrix(600,0,0,600,2486.92,365.76)">
            <path d="M0.017,-0.683L0.587,-0.683L0.587,-0.596L0.349,-0.596L0.349,-0L0.251,-0L0.251,-0.596L0.017,-0.596L0.017,-0.683Z" style="fill:rgb(243,114,32);fill-rule:nonzero;"/>
        </g>
        <g transform="matrix(600,0,0,600,2819.32,365.76)">
            <path d="M0.244,-0.286L0.17,-0.331C0.123,-0.359 0.09,-0.387 0.071,-0.415C0.051,-0.442 0.041,-0.474 0.041,-0.51C0.041,-0.563 0.06,-0.607 0.097,-0.641C0.134,-0.674 0.183,-0.691 0.242,-0.691C0.299,-0.691 0.351,-0.675 0.399,-0.643L0.399,-0.532C0.35,-0.579 0.297,-0.603 0.24,-0.603C0.208,-0.603 0.182,-0.596 0.162,-0.581C0.141,-0.566 0.131,-0.547 0.131,-0.524C0.131,-0.503 0.138,-0.484 0.153,-0.466C0.168,-0.448 0.193,-0.43 0.226,-0.41L0.301,-0.366C0.384,-0.317 0.426,-0.254 0.426,-0.177C0.426,-0.122 0.407,-0.078 0.371,-0.043C0.334,-0.009 0.287,0.008 0.228,0.008C0.161,0.008 0.099,-0.013 0.044,-0.054L0.044,-0.178C0.097,-0.111 0.158,-0.078 0.227,-0.078C0.258,-0.078 0.283,-0.087 0.303,-0.104C0.324,-0.121 0.334,-0.142 0.334,-0.168C0.334,-0.21 0.304,-0.249 0.244,-0.286Z" style="fill:rgb(243,114,32);fill-rule:nonzero;"/>
        </g>
    </g>
    <g transform="matrix(0.666785,0,0,0.569358,-673.166,-639.433)">
        <path d="M1356.44,1875.32L1458.67,1604.45L1652.49,1665.16L1356.44,1875.32Z" style="fill:rgb(100,116,139);"/>
    </g>
    <g transform="matrix(0.666785,0,0,0.569358,-675.918,-637.448)">
        <path d="M1287.2,1536.43L1359.83,1875.65L1462.78,1601.13L1961.69,1152.16L1287.2,1536.43Z" style="fill:rgb(148,163,184);"/>
    </g>
    <g transform="matrix(0.666785,0,0,0.569358,-673.166,-639.433)">
        <path d="M1286.95,1544.63L1944.45,1165.47L1458.67,1604.5L1851.69,1747.82C1881.21,1758.86 1920.88,1749.38 1928.68,1717.96C1943.93,1656.54 1978.63,1209.92 1984.45,1134.03C1984.64,1131.46 1983.79,1128.93 1982.15,1127.22C1980.5,1125.51 1978.26,1124.81 1976.11,1125.34C1893.51,1145.76 1275.19,1299.64 1027.11,1391.1C1016.59,1394.98 1009.6,1405 1009.57,1416.21C1009.54,1427.42 1016.49,1437.46 1027,1441.39L1286.95,1544.63Z" style="fill:rgb(203,213,225);"/>
    </g>
</svg>
