<?xml version="1.0" encoding="UTF-8" standalone="no"?>
<!DOCTYPE svg PUBLIC "-//W3C//DTD SVG 1.1//EN" "http://www.w3.org/Graphics/SVG/1.1/DTD/svg11.dtd">
<svg width="100%" height="100%" viewBox="0 0 651 431" version="1.1" xmlns="http://www.w3.org/2000/svg" xmlns:xlink="http://www.w3.org/1999/xlink" xml:space="preserve" xmlns:serif="http://www.serif.com/" style="fill-rule:evenodd;clip-rule:evenodd;stroke-linejoin:round;stroke-miterlimit:2;">
    <g transform="matrix(0.666785,0,0,0.569358,-673.166,-639.433)">
        <path d="M1356.44,1875.32L1458.67,1604.45L1652.49,1665.16L1356.44,1875.32Z" style="fill:rgb(100,116,139);"/>
    </g>
    <g transform="matrix(0.666785,0,0,0.569358,-675.918,-637.448)">
        <path d="M1287.2,1536.43L1359.83,1875.65L1462.78,1601.13L1961.69,1152.16L1287.2,1536.43Z" style="fill:rgb(148,163,184);"/>
    </g>
    <g transform="matrix(0.666785,0,0,0.569358,-673.166,-639.433)">
        <path d="M1286.95,1544.63L1944.45,1165.47L1458.67,1604.5L1851.69,1747.82C1881.21,1758.86 1920.88,1749.38 1928.68,1717.96C1943.93,1656.54 1978.63,1209.92 1984.45,1134.03C1984.64,1131.46 1983.79,1128.93 1982.15,1127.22C1980.5,1125.51 1978.26,1124.81 1976.11,1125.34C1893.51,1145.76 1275.19,1299.64 1027.11,1391.1C1016.59,1394.98 1009.6,1405 1009.57,1416.21C1009.54,1427.42 1016.49,1437.46 1027,1441.39L1286.95,1544.63Z" style="fill:rgb(203,213,225);"/>
    </g>
</svg>
